<svg width="29" height="28" viewBox="0 0 29 28" fill="none" xmlns="http://www.w3.org/2000/svg">
<path d="M11.2149 14.134C11.2149 14.9173 11.549 15.6684 12.1439 16.2222C12.7387 16.776 13.5455 17.0872 14.3867 17.0872C15.228 17.0872 16.0347 16.776 16.6296 16.2222C17.2244 15.6684 17.5586 14.9173 17.5586 14.134C17.5586 13.3508 17.2244 12.5997 16.6296 12.0459C16.0347 11.492 15.228 11.1809 14.3867 11.1809C13.5455 11.1809 12.7387 11.492 12.1439 12.0459C11.549 12.5997 11.2149 13.3508 11.2149 14.134ZM26.6834 13.4538C23.9986 8.18823 19.9403 5.53833 14.5 5.53833C9.05685 5.53833 5.00138 8.18823 2.31661 13.4564C2.20893 13.6687 2.15308 13.9006 2.15308 14.1354C2.15308 14.3701 2.20893 14.602 2.31661 14.8143C5.00138 20.0798 9.05968 22.7297 14.5 22.7297C19.9432 22.7297 23.9986 20.0798 26.6834 14.8117C26.9015 14.3845 26.9015 13.8888 26.6834 13.4538ZM14.3867 18.7747C11.634 18.7747 9.40235 16.6969 9.40235 14.134C9.40235 11.5711 11.634 9.49341 14.3867 9.49341C17.1395 9.49341 19.3711 11.5711 19.3711 14.134C19.3711 16.6969 17.1395 18.7747 14.3867 18.7747Z" fill="#757575"/>
</svg>
