<svg width="26" height="29" viewBox="0 0 26 29" fill="none" xmlns="http://www.w3.org/2000/svg">
<path d="M23.7759 11.3429C23.7078 11.1269 23.5825 10.9371 23.4154 10.7969C23.2483 10.6568 23.0467 10.5724 22.8356 10.5542L16.6595 10.0257L13.9869 3.65452C13.9018 3.44932 13.7633 3.27503 13.5883 3.15269C13.4132 3.03035 13.209 2.96518 13.0003 2.96506C12.7916 2.96493 12.5874 3.02986 12.4122 3.15199C12.237 3.27413 12.0984 3.44825 12.0131 3.65335L9.34049 10.0257L3.1644 10.5542C2.9569 10.5719 2.75852 10.6536 2.59301 10.7895C2.42749 10.9255 2.30185 11.1099 2.23111 11.3207C2.16036 11.5315 2.14752 11.7599 2.19411 11.9783C2.2407 12.1968 2.34476 12.3962 2.49382 12.5527L7.0579 17.3442L5.44374 24.8715C5.39472 25.0994 5.41043 25.3378 5.48883 25.5559C5.56722 25.7741 5.70467 25.9618 5.88336 26.0947C6.06204 26.2276 6.2737 26.2997 6.49087 26.3014C6.70804 26.3032 6.92069 26.2347 7.10124 26.1047L13 21.8697L18.8987 26.1047C19.0833 26.2366 19.3009 26.3046 19.5223 26.2993C19.7438 26.2941 19.9584 26.216 20.1374 26.0754C20.3164 25.9349 20.4511 25.7387 20.5235 25.5133C20.5958 25.2878 20.6024 25.0439 20.5422 24.8144L18.5607 17.3477L23.4747 12.5854C23.7965 12.2727 23.9146 11.785 23.7759 11.3429Z" fill="#1D4ED8"/>
</svg>
