<svg width="23" height="19" viewBox="0 0 23 19" fill="none" xmlns="http://www.w3.org/2000/svg">
<path d="M19.7454 14.8835L16.6341 12.3801C17.638 11.348 18.1826 10.0735 18.1806 8.76153C18.1806 7.59308 17.7513 6.45087 16.9469 5.47933C16.1425 4.5078 14.9992 3.75058 13.6615 3.30344C12.3238 2.85629 10.8519 2.73929 9.43186 2.96725C8.01181 3.1952 6.70741 3.75787 5.68361 4.58409C4.65981 5.41031 3.96259 6.46298 3.68013 7.60898C3.39766 8.75498 3.54263 9.94284 4.09671 11.0224C4.65079 12.1019 5.58908 13.0245 6.79294 13.6737C7.99681 14.3228 9.41216 14.6693 10.86 14.6693C12.4858 14.671 14.065 14.2314 15.3439 13.4213L18.446 15.9321C18.5311 16.0013 18.6323 16.0563 18.7438 16.0938C18.8553 16.1313 18.9749 16.1506 19.0957 16.1506C19.2165 16.1506 19.3361 16.1313 19.4476 16.0938C19.5591 16.0563 19.6603 16.0013 19.7454 15.9321C19.8312 15.8635 19.8992 15.7818 19.9457 15.6918C19.9921 15.6018 20.0161 15.5053 20.0161 15.4078C20.0161 15.3103 19.9921 15.2138 19.9457 15.1238C19.8992 15.0338 19.8312 14.9521 19.7454 14.8835ZM5.36961 8.76153C5.36961 7.88519 5.69161 7.02853 6.29491 6.29988C6.89821 5.57123 7.7557 5.00332 8.75894 4.66796C9.76219 4.3326 10.8661 4.24485 11.9312 4.41582C12.9962 4.58679 13.9745 5.00878 14.7424 5.62845C15.5102 6.24811 16.0331 7.03762 16.245 7.89712C16.4568 8.75662 16.3481 9.64751 15.9325 10.4571C15.517 11.2668 14.8133 11.9588 13.9104 12.4457C13.0075 12.9325 11.9459 13.1924 10.86 13.1924C9.40388 13.1924 8.00737 12.7256 6.97772 11.8946C5.94806 11.0637 5.36961 9.93667 5.36961 8.76153Z" fill="#CDCDCD"/>
</svg>
