<svg width="18" height="23" viewBox="0 0 18 23" fill="none" xmlns="http://www.w3.org/2000/svg">
<path d="M0.75 3.38403V21.9465C0.749913 22.0659 0.780916 22.1833 0.839959 22.287C0.899001 22.3908 0.984048 22.4774 1.08673 22.5383C1.1894 22.5992 1.30618 22.6324 1.42554 22.6344C1.54491 22.6365 1.66277 22.6075 1.7675 22.5502L9 18.6039L16.2325 22.5502C16.3372 22.6075 16.4551 22.6365 16.5745 22.6344C16.6938 22.6324 16.8106 22.5992 16.9133 22.5383C17.016 22.4774 17.101 22.3908 17.16 22.287C17.2191 22.1833 17.2501 22.0659 17.25 21.9465V3.38403C17.25 2.65469 16.9603 1.95521 16.4445 1.43949C15.9288 0.923765 15.2293 0.634033 14.5 0.634033L3.5 0.634033C2.77065 0.634033 2.07118 0.923765 1.55546 1.43949C1.03973 1.95521 0.75 2.65469 0.75 3.38403Z" fill="#757575"/>
</svg>
